<svg xmlns="http://www.w3.org/2000/svg" viewBox="0 0 24 24">
  <rect width="24" height="24" rx="3" fill="#FF0000"/>
  <path fill="white" d="M12 4L6 20h2.4l1.2-3.2h4.8L15.6 20H18L12 4zm0 3.6L14.1 14H9.9L12 7.6z"/>
  <path fill="white" opacity="0.8" d="M16 5.5c.6.3 1 .7 1.3 1.2.3.4.4.9.4 1.4 0 .9-.4 1.7-1.1 2.3.4.2.7.5.9.9.2.4.3.8.3 1.2 0 .6-.2 1.1-.6 1.5-.4.4-.9.6-1.5.6h-1v-1.5h.8c.3 0 .5-.1.7-.3.2-.2.3-.4.3-.6 0-.3-.1-.5-.3-.7-.2-.2-.4-.3-.7-.3h-1V10h.9c.4 0 .7-.1.9-.4.2-.3.4-.6.4-.9 0-.5-.3-.9-.8-1.1L16 5.5z"/>
</svg>
