<svg xmlns="http://www.w3.org/2000/svg" viewBox="0 0 62.76 62.76">
  <path fill="#60d5c4" fill-rule="evenodd" d="M61.66,1.1l-30.28,30.28,30.28,30.28c.68-.68,1.1-1.62,1.1-2.66V3.77c0-1.04-.42-1.98-1.1-2.66Z"/>
  <path fill="#71e9d8" fill-rule="evenodd" d="M61.66,1.1l-30.28,30.28L1.1,1.1C1.78.42,2.73,0,3.77,0h55.23c1.04,0,1.98.42,2.66,1.1Z"/>
  <path fill="#60d5c4" fill-rule="evenodd" d="M1.1,1.1l30.28,30.28L1.1,61.66c-.68-.68-1.1-1.62-1.1-2.66V3.77c0-1.04.42-1.98,1.1-2.66Z"/>
  <path fill="#71e9d8" fill-rule="evenodd" d="M61.66,61.66l-30.28-30.28L1.1,61.66c.68.68,1.62,1.1,2.66,1.1h55.23c1.04,0,1.98-.42,2.66-1.1Z"/>
  <rect fill="#09b6a2" x="7.85" y="7.85" width="47.07" height="47.07" rx=".31" ry=".31"/>
  <path fill="#fff" d="M18.95,45.52c-3.07,0-4.6-1.53-4.6-4.6v-6.58c0-1.15-.56-1.72-1.69-1.72-.41,0-.76-.13-1.04-.4-.26-.26-.4-.6-.4-1.02s.13-.78.4-1.04c.28-.26.63-.4,1.04-.4,1.13,0,1.69-.57,1.69-1.72v-6.58c0-3.07,1.53-4.6,4.6-4.6.41,0,.75.14,1.02.42.26.28.4.63.4,1.04s-.13.75-.4,1.02c-.26.26-.6.4-1.02.4-1.15,0-1.72.57-1.72,1.72v6.58c0,.66-.08,1.25-.23,1.78s-.38.99-.68,1.38c.6.77.9,1.82.9,3.13v6.58c0,1.15.57,1.72,1.72,1.72.41,0,.75.13,1.02.4.26.26.4.61.4,1.04s-.13.75-.4,1.02c-.26.28-.6.42-1.02.42ZM24.59,39.36c-.53,0-.99-.19-1.38-.56-.38-.4-.56-.86-.56-1.38s.19-1.01.56-1.38c.4-.4.86-.59,1.38-.59s1.01.2,1.38.59c.38.38.56.84.56,1.38s-.19.99-.56,1.38c-.38.38-.84.56-1.38.56ZM31.32,39.36c-.53,0-.99-.19-1.38-.56-.38-.4-.56-.86-.56-1.38s.19-1.01.56-1.38c.4-.4.86-.59,1.38-.59s1.01.2,1.38.59c.38.38.56.84.56,1.38s-.19.99-.56,1.38c-.38.38-.84.56-1.38.56ZM38.05,39.36c-.53,0-.99-.19-1.38-.56-.38-.4-.56-.86-.56-1.38s.19-1.01.56-1.38c.4-.4.86-.59,1.38-.59s1.01.2,1.38.59c.38.38.56.84.56,1.38s-.19.99-.56,1.38c-.38.38-.84.56-1.38.56ZM43.71,45.52c-.41,0-.75-.14-1.02-.42-.26-.26-.4-.6-.4-1.02s.13-.78.4-1.04c.26-.26.6-.4,1.02-.4,1.15,0,1.72-.57,1.72-1.72v-6.58c0-1.32.3-2.36.9-3.13-.3-.4-.53-.86-.68-1.38-.15-.53-.23-1.12-.23-1.78v-6.58c0-1.15-.57-1.72-1.72-1.72-.41,0-.75-.13-1.02-.4-.26-.26-.4-.6-.4-1.02s.13-.76.4-1.04c.26-.28.6-.42,1.02-.42,3.07,0,4.6,1.53,4.6,4.6v6.58c0,1.15.56,1.72,1.69,1.72.41,0,.75.13,1.02.4.28.26.42.61.42,1.04s-.14.75-.42,1.02c-.26.26-.6.4-1.02.4-1.13,0-1.69.57-1.69,1.72v6.58c0,3.07-1.53,4.6-4.6,4.6Z"/>
</svg>
